<?xml version="1.0" encoding="utf-8"?>
<!-- Generator: Adobe Illustrator 15.0.0, SVG Export Plug-In . SVG Version: 6.00 Build 0)  -->
<!DOCTYPE svg PUBLIC "-//W3C//DTD SVG 1.1//EN" "http://www.w3.org/Graphics/SVG/1.1/DTD/svg11.dtd">
<svg version="1.1" id="Layer_1" xmlns="http://www.w3.org/2000/svg" xmlns:xlink="http://www.w3.org/1999/xlink" x="0px" y="0px"
	 width="792px" height="612px" viewBox="0 0 792 612" enable-background="new 0 0 792 612" xml:space="preserve">
<g>
	<g>
		<polygon points="155.788,392.836 211.039,354.727 246.972,392.609 308.001,392.609 219.328,299.857 219.299,299.816 
			219.294,299.823 219.27,299.799 219.219,299.872 83.604,392.609 		"/>
		<polygon fill="#FFA316" points="283.825,189.788 253.792,317.998 290.174,356.244 333.116,172.707 		"/>
		<polygon fill="#FFA316" points="193.976,302.239 221.338,283.513 239.151,302.69 263.907,196.953 214.619,214.032 		"/>
		<polygon fill="#FFA316" points="118.777,354.232 172.796,316.961 195.551,220.587 146.263,237.669 		"/>
	</g>
	<g>
		<path fill="#FFA316" d="M334.282,358.247h17.273c4.671,0,8.216,0.188,10.637,0.567c2.419,0.379,4.173,0.926,5.261,1.641
			s1.731,1.581,1.932,2.597c0.199,1.017,0.039,2.59-0.481,4.721l-0.725,2.965c-0.532,2.174-1.354,3.758-2.466,4.753
			c-1.114,0.995-2.895,1.759-5.348,2.292s-5.553,0.799-9.3,0.799h-4.604l-3.353,13.71h-17.151L334.282,358.247z M350.009,364.071
			l-2.119,8.664c0.485,0.015,0.904,0.021,1.258,0.021c1.574,0,2.717-0.2,3.426-0.599c0.709-0.399,1.218-1.229,1.526-2.491
			l0.684-2.798c0.285-1.163,0.116-1.92-0.504-2.271C353.659,364.247,352.236,364.071,350.009,364.071z"/>
		<path fill="#FFA316" d="M384.86,358.247h12.141c8.093,0,13.532,0.161,16.319,0.484c2.786,0.322,4.92,1.146,6.402,2.47
			c1.481,1.325,1.868,3.438,1.158,6.341c-0.647,2.649-1.722,4.43-3.22,5.341c-1.5,0.911-4.146,1.458-7.938,1.64
			c3.288,0.435,5.427,1.017,6.417,1.745c0.989,0.729,1.553,1.398,1.688,2.009c0.136,0.609-0.132,2.289-0.804,5.036l-2.195,8.979
			h-15.929l2.766-11.313c0.446-1.822,0.443-2.95-0.007-3.385c-0.451-0.434-1.857-0.652-4.22-0.652l-3.753,15.351h-17.152
			L384.86,358.247z M400.587,364.071l-1.851,7.57c1.928,0,3.312-0.137,4.153-0.41c0.841-0.272,1.444-1.16,1.812-2.659l0.457-1.872
			c0.264-1.079,0.064-1.787-0.601-2.124S402.568,364.071,400.587,364.071z"/>
		<path fill="#FFA316" d="M472.811,378.182c-0.837,3.421-1.585,5.842-2.246,7.266c-0.66,1.423-1.955,2.722-3.886,3.9
			c-1.932,1.177-4.374,2.081-7.324,2.712c-2.952,0.631-6.288,0.947-10.009,0.947c-3.531,0-6.629-0.298-9.294-0.895
			c-2.666-0.596-4.708-1.489-6.127-2.682c-1.42-1.191-2.121-2.488-2.104-3.89s0.454-3.854,1.311-7.359l1.425-5.825
			c0.836-3.42,1.584-5.842,2.244-7.265s1.956-2.723,3.888-3.901c1.93-1.177,4.372-2.081,7.323-2.712s6.288-0.946,10.009-0.946
			c3.53,0,6.629,0.298,9.294,0.894c2.665,0.597,4.708,1.49,6.128,2.682c1.419,1.191,2.121,2.488,2.104,3.89
			c-0.017,1.401-0.454,3.855-1.311,7.359L472.811,378.182z M458.396,366.994c0.387-1.583,0.465-2.596,0.232-3.038
			c-0.231-0.441-0.877-0.662-1.936-0.662c-0.896,0-1.626,0.178-2.188,0.536c-0.563,0.357-1.059,1.412-1.486,3.164l-3.888,15.897
			c-0.483,1.977-0.625,3.196-0.426,3.658c0.198,0.463,0.869,0.694,2.01,0.694c1.167,0,1.979-0.267,2.436-0.799
			c0.457-0.532,0.93-1.801,1.42-3.807L458.396,366.994z"/>
		<path fill="#FFA316" d="M513.761,358.247l-5.563,22.752c-0.833,3.406-1.438,5.598-1.811,6.571
			c-0.375,0.975-1.211,1.854-2.507,2.639c-1.296,0.785-2.925,1.329-4.884,1.63c-1.961,0.302-4.84,0.452-8.639,0.452h-8.59
			l1.455-5.95c1.021,0.041,1.763,0.062,2.225,0.062c1.223,0,2.224-0.154,3.006-0.462c0.781-0.309,1.281-0.688,1.5-1.136
			c0.217-0.449,0.484-1.317,0.8-2.607l5.856-23.951H513.761z"/>
		<path fill="#FFA316" d="M529.101,358.247h28.599l-1.666,6.813h-11.447l-1.578,6.455h10.713l-1.583,6.477h-10.714l-1.83,7.486
			h12.588l-1.666,6.812h-29.739L529.101,358.247z"/>
		<path fill="#FFA316" d="M608.889,373.072h-17.15l1.447-5.918c0.42-1.721,0.499-2.793,0.236-3.22
			c-0.262-0.428-1.019-0.641-2.268-0.641c-1.412,0-2.372,0.26-2.879,0.777c-0.508,0.52-0.971,1.641-1.393,3.365l-3.866,15.812
			c-0.405,1.654-0.479,2.733-0.222,3.238c0.256,0.505,1.05,0.757,2.381,0.757c1.276,0,2.173-0.252,2.691-0.759
			c0.518-0.506,1.005-1.693,1.462-3.562l1.047-4.279h17.15l-0.325,1.326c-0.861,3.523-1.955,6.022-3.279,7.497
			c-1.324,1.474-3.771,2.766-7.343,3.875c-3.571,1.108-7.774,1.664-12.608,1.664c-5.025,0-9.051-0.471-12.08-1.41
			c-3.03-0.938-4.871-2.238-5.524-3.899c-0.652-1.662-0.57-4.161,0.245-7.497l2.432-9.946c0.601-2.453,1.212-4.293,1.839-5.521
			c0.626-1.227,1.885-2.407,3.779-3.543c1.893-1.135,4.353-2.028,7.377-2.681c3.024-0.651,6.397-0.978,10.118-0.978
			c5.052,0,9.098,0.504,12.137,1.512c3.04,1.009,4.892,2.266,5.556,3.77c0.664,1.505,0.607,3.846-0.169,7.023L608.889,373.072z"/>
		<path fill="#FFA316" d="M661.91,358.247l-1.666,6.813H650.06l-6.658,27.23h-17.15l6.658-27.23h-10.144l1.666-6.813H661.91z"/>
	</g>
	<g>
		<g>
			<polygon points="475.409,301.403 392.46,301.462 422.692,172.964 377.735,172.964 337.273,345.191 465.169,345.174 			"/>
		</g>
		<polygon points="523.762,173.208 499.772,195.957 485.661,173.343 440.705,173.343 415.627,283.601 460.582,283.601 
			468.307,250.674 482.317,271.608 506.38,249.011 483.484,345.105 528.439,345.105 568.716,173.343 		"/>
		<path d="M627.001,216.701h64.056L701.246,173l-77.818,0.092c-25.902-0.016-44.865,15.916-51.424,43.695
			c-6.919,29.324,6.551,57.599,30.088,63.153c4.314,1.02,12.891,0.943,12.86,1.098l14.737,0.003c0.099-0.004,0.198-0.003,0.298,0
			h0.464l-0.003,0.019c0.293,0.027,0.585,0.069,0.877,0.138c4.072,0.96,6.406,5.853,5.207,10.926
			c-1.128,4.78-6.244,9.166-11.55,9.166h-68.175l-10.323,43.899l81.972-0.102c31.065,0.033,47.02-14.383,53.849-43.315
			c6.913-29.298-6.546-57.548-30.062-63.096c-3.058-0.722-6.13-1.003-9.185-0.918c-0.083-0.266-21.199-0.79-21.199-0.79
			c-0.098,0.004-0.197,0.003-0.299,0h-0.462v-0.021c-0.289-0.025-0.581-0.064-0.873-0.133c-4.075-0.964-6.406-5.856-5.208-10.931
			C616.142,221.105,621.193,216.701,627.001,216.701z"/>
	</g>
</g>
</svg>
